# xmcd
#
# Track frame offsets:
# 150
# 15262
# 36415
# 56487
# 74228
# 92405
# 109671
# 131890
# 152727
# 167319
# 185684
# 208535
# 222687
# 242183
# 260145
# 278955
# 297742
# 316544
# 333977
#
# Disc length: 4659 seconds
#
#
# Revision: 0
# Processed by: cddbd v1.5.1PL2 Copyright (c) Steve Scherf et al.
# Submitted via: FreeRIP 2.944 
#
DISCID=27123113
DTITLE=The Blues Band - The Blues Band Box - Disk 4
DYEAR=2005
DGENRE=Blues
TTITLE0=No More Doggin'
TTITLE1=Baby Please Don't Go
TTITLE2=Losing You Put The Blues In Me
TTITLE3=Take Me To The Red Line
TTITLE4=The Grass Is Greener
TTITLE5=People Get Ready
TTITLE6=It's Got To Be The Blues
TTITLE7=Creole Love Call
TTITLE8=Cross Roads Blues
TTITLE9=I'm Your Man
TTITLE10=Still A Fool
TTITLE11=Don't Sell It Don't Give It Away
TTITLE12=Don't Let Them Grind You Down
TTITLE13=On The Street
TTITLE14=I Am The Blues
TTITLE15=Bus To Nowhere
TTITLE16=Mr Estes Said
TTITLE17=Wait A Minute
TTITLE18=These Shoes
EXTD=BGO Records\nBGOBBCD1-4
EXTT0=Trad Kelly
EXTT1=Williams
EXTT2=McGuinness,Kelly
EXTT3=Fletcher
EXTT4=McGuinness
EXTT5=Mayfield
EXTT6=Jones
EXTT7=Ellington
EXTT8=Johnson
EXTT9=Jones
EXTT10=Morganfield
EXTT11=Woods
EXTT12=Fletcher
EXTT13=Jones
EXTT14=Kelly,Stonebridge
EXTT15=Fletcher
EXTT16=Kelly
EXTT17=Jones,McGuinness
EXTT18=Jones,McGuinness
PLAYORDER=
